<svg width="177" height="295" viewBox="0 0 177 295" fill="none" xmlns="http://www.w3.org/2000/svg">
<path d="M96.2517 0.0593927L80.1994 5.34242L85.4824 21.3947L101.535 16.1117L96.2517 0.0593927ZM3.11035 184.585L1.26266 183.652L0.403454 185.354L2.02963 186.35L3.11035 184.585ZM154.339 283.932C154.339 290.028 159.281 294.97 165.377 294.97C171.474 294.97 176.416 290.028 176.416 283.932C176.416 277.835 171.474 272.893 165.377 272.893C159.281 272.893 154.339 277.835 154.339 283.932ZM89.0193 9.79441L1.26266 183.652L4.95804 185.517L92.7147 11.6597L89.0193 9.79441ZM2.02963 186.35L164.297 285.697L166.458 282.167L4.19107 182.819L2.02963 186.35Z" fill="black"/>
</svg>
