<svg width="176" height="296" viewBox="0 0 176 296" fill="none" xmlns="http://www.w3.org/2000/svg">
<path d="M79.9173 11.9407C79.9173 18.0371 84.8595 22.9792 90.9559 22.9792C97.0523 22.9792 101.994 18.0371 101.994 11.9407C101.994 5.84424 97.0523 0.902099 90.9559 0.902099C84.8595 0.902099 79.9173 5.84424 79.9173 11.9407ZM3.19922 185.798L1.35153 184.866L0.492321 186.568L2.1185 187.563L3.19922 185.798ZM175.658 291.385L171.706 274.954L155.275 278.906L159.227 295.337L175.658 291.385ZM89.1082 11.008L1.35153 184.866L5.04691 186.731L92.8036 12.8733L89.1082 11.008ZM2.1185 187.563L164.386 286.911L166.547 283.38L4.27994 184.033L2.1185 187.563Z" fill="black"/>
</svg>
