<svg width="44" height="52" viewBox="0 0 44 52" fill="none" xmlns="http://www.w3.org/2000/svg">
<path d="M1.22509 47.4979C0.394157 48.6006 0.614456 50.1681 1.71714 50.999C2.81983 51.83 4.38734 51.6097 5.21827 50.507L1.22509 47.4979ZM40.0558 3.0593C39.8636 1.69203 38.5995 0.739408 37.2322 0.931563L14.9512 4.06296C13.5839 4.25512 12.6313 5.51929 12.8234 6.88656C13.0156 8.25384 14.2798 9.20646 15.647 9.0143L35.4524 6.23084L38.2359 26.0362C38.428 27.4035 39.6922 28.3561 41.0595 28.1639C42.4267 27.9718 43.3794 26.7076 43.1872 25.3403L40.0558 3.0593ZM5.21827 50.507L39.5767 4.91177L35.5835 1.9027L1.22509 47.4979L5.21827 50.507Z" fill="#E82E43"/>
</svg>
