<svg width="79" height="76" viewBox="0 0 79 76" fill="none" xmlns="http://www.w3.org/2000/svg">
<path d="M39.5 0L46.6872 18.7897L64.8901 8.79045L57.6987 27.5787L78.3999 31.0487L60.1947 41.0442L73.708 56.3598L53.0075 52.8856L53.0098 72.8804L39.5 57.5621L25.9902 72.8804L25.9925 52.8856L5.292 56.3598L18.8053 41.0442L0.600094 31.0487L21.3013 27.5787L14.1099 8.79045L32.3128 18.7897L39.5 0Z" fill="#3D7773"/>
<path d="M39.4996 16.8597L43.4438 27.1712L53.4332 21.6838L49.4867 31.9944L60.8471 33.8986L50.8565 39.384L58.2723 47.7889L46.9123 45.8823L46.9135 56.8551L39.4996 48.4487L32.0857 56.8551L32.0869 45.8823L20.7269 47.7889L28.1427 39.384L18.1521 33.8986L29.5125 31.9944L25.566 21.6838L35.5554 27.1712L39.4996 16.8597Z" fill="#FCED2F"/>
<path d="M39.2588 28.9025L40.8803 33.1416L44.987 30.8857L43.3645 35.1245L48.035 35.9073L43.9277 38.1624L46.9764 41.6178L42.3062 40.834L42.3067 45.345L39.2588 41.889L36.2108 45.345L36.2113 40.834L31.5411 41.6178L34.5898 38.1624L30.4826 35.9073L35.153 35.1245L33.5305 30.8857L37.6372 33.1416L39.2588 28.9025Z" fill="#3A1DFA"/>
</svg>
