<svg width="682" height="660" viewBox="0 0 682 660" fill="none" xmlns="http://www.w3.org/2000/svg">
<path d="M40.876 107L616.93 122.314" stroke="white" stroke-opacity="0.66"/>
<path d="M0 216.028L634.026 232.543" stroke="white" stroke-opacity="0.66"/>
<path d="M21.5762 169.989L661.673 168.975" stroke="white" stroke-opacity="0.66"/>
<path d="M0.513672 47.8159L681.713 47.8159" stroke="white" stroke-opacity="0.66"/>
<path d="M21.6768 335.612L634.191 335.612" stroke="white" stroke-opacity="0.66"/>
<path d="M60.9795 376L633.536 390.914" stroke="white" stroke-opacity="0.66"/>
<path d="M21.5732 278.513L661.786 278.513" stroke="white" stroke-opacity="0.66"/>
<path d="M40.4644 436.539L660.721 452.696" stroke="white" stroke-opacity="0.66"/>
<path d="M21.938 547.637H661.81" stroke="white" stroke-opacity="0.66"/>
<path d="M40.8564 600.839L663.673 600.839" stroke="white" stroke-opacity="0.66"/>
<path d="M0.669434 490L663.654 497.677" stroke="white" stroke-opacity="0.66"/>
<path d="M40.6465 635.456L660.529 651.603" stroke="white" stroke-opacity="0.66"/>
<path d="M90.2188 0V725.695" stroke="white" stroke-opacity="0.66"/>
<path d="M210.526 0V725.695" stroke="white" stroke-opacity="0.66"/>
<path d="M271.159 161.164V725.695" stroke="white" stroke-opacity="0.66"/>
<path d="M391.676 75.4382V734.267" stroke="white" stroke-opacity="0.66"/>
<path d="M509.874 161.164V734.268" stroke="white" stroke-opacity="0.66"/>
<path d="M149.491 25.3486L150.644 725.695" stroke="white" stroke-opacity="0.66"/>
<path d="M330.833 0V725.695" stroke="white" stroke-opacity="0.66"/>
<path d="M391.729 0V726" stroke="white" stroke-opacity="0.66"/>
<path d="M496 0V725.695" stroke="white" stroke-opacity="0.66"/>
<path d="M271.039 25V726" stroke="white" stroke-opacity="0.66"/>
<path d="M449.936 25L451.139 725.695" stroke="white" stroke-opacity="0.66"/>
<path d="M540 0V725.695" stroke="white" stroke-opacity="0.66"/>
</svg>
