<svg width="337" height="161" viewBox="0 0 337 161" fill="none" xmlns="http://www.w3.org/2000/svg">
<rect x="14.1981" y="44.6019" width="310" height="114" rx="3" transform="rotate(-6 14.1981 44.6019)" fill="#E73F0A" stroke="black" stroke-width="4"/>
<rect x="2.74763" y="35.0469" width="309" height="113" rx="2.5" transform="rotate(-6 2.74763 35.0469)" fill="#AA14F0" stroke="black" stroke-width="5"/>
<mask id="path-3-outside-1_0_1246" maskUnits="userSpaceOnUse" x="94.8603" y="50.8449" width="134.15" height="50.4905" fill="black">
<rect fill="white" x="94.8603" y="50.8449" width="134.15" height="50.4905"/>
<path d="M109.564 93.3108C113.256 92.9228 114.958 91.3603 114.67 88.6234C114.553 87.5095 114.175 86.6645 113.535 86.0882C112.927 85.5085 111.85 85.0586 110.304 84.7385L106.255 83.861C101.416 82.8251 98.7538 79.9999 98.2688 75.3853C97.9878 72.712 98.5845 70.4292 100.059 68.5367C101.561 66.6091 104.095 65.4579 107.659 65.0833C109.155 64.9261 110.653 64.9456 112.154 65.1418C113.652 65.3062 115.266 65.6674 116.998 66.2254L115.748 71.328C114.157 70.8838 112.807 70.5914 111.699 70.4505C110.618 70.2744 109.521 70.245 108.407 70.362C106.943 70.5159 105.81 70.9085 105.008 71.5398C104.234 72.136 103.919 73.1183 104.063 74.4868C104.17 75.5052 104.545 76.3184 105.188 76.9265C105.859 77.4995 106.903 77.9368 108.318 78.2385L112.368 79.116C114.807 79.6641 116.695 80.64 118.033 82.0439C119.4 83.4125 120.213 85.338 120.474 87.8203C120.775 90.6846 120.112 93.1031 118.486 95.0759C116.856 97.0169 114.099 98.1915 110.217 98.5996C108.689 98.7601 107.08 98.7523 105.388 98.5762C103.725 98.3649 101.876 97.9157 99.8407 97.2287L101.09 92.1261C102.953 92.7026 104.521 93.0847 105.796 93.2725C107.099 93.4251 108.355 93.4379 109.564 93.3108ZM121.012 69.7129L120.435 64.2231L144.304 61.7145L144.881 67.2042L135.811 68.1575L138.646 95.129L132.917 95.731L130.082 68.7596L121.012 69.7129ZM166.998 92.149L164.326 86.0107L153.203 87.1797L151.866 93.7395L146.185 94.3365L153.609 60.7364L158.67 60.2045L172.965 91.5218L166.998 92.149ZM155.263 76.9243L154.274 81.758L162.103 80.9352L160.132 76.4125L156.882 68.4526L155.263 76.9243ZM182.862 78.4155L184.116 90.3498L178.388 90.9519L174.976 58.4907L185.812 57.3517C189.09 57.0072 191.693 57.5863 193.621 59.0891C195.577 60.5566 196.702 62.6907 196.996 65.4913L197.212 67.544C197.406 69.3898 197.179 71.0547 196.53 72.5386C195.882 74.0225 194.848 75.209 193.43 76.0982C196.507 80.2794 199.195 84.4211 201.492 88.5235L194.952 89.2109C192.943 85.4 190.631 81.6209 188.017 77.8737L182.862 78.4155ZM186.364 62.6028L181.256 63.1397L182.31 73.1645L187.418 72.6276C188.818 72.4804 189.847 72.0183 190.506 71.2412C191.193 70.429 191.471 69.4023 191.34 68.1611L191.125 66.1084C190.998 64.8991 190.515 63.9845 189.678 63.3646C188.869 62.7096 187.764 62.4556 186.364 62.6028ZM200.776 61.3294L200.199 55.8396L224.068 53.3309L224.645 58.8207L215.574 59.774L218.409 86.7454L212.681 87.3475L209.846 60.3761L200.776 61.3294Z"/>
</mask>
<path d="M109.564 93.3108C113.256 92.9228 114.958 91.3603 114.67 88.6234C114.553 87.5095 114.175 86.6645 113.535 86.0882C112.927 85.5085 111.85 85.0586 110.304 84.7385L106.255 83.861C101.416 82.8251 98.7538 79.9999 98.2688 75.3853C97.9878 72.712 98.5845 70.4292 100.059 68.5367C101.561 66.6091 104.095 65.4579 107.659 65.0833C109.155 64.9261 110.653 64.9456 112.154 65.1418C113.652 65.3062 115.266 65.6674 116.998 66.2254L115.748 71.328C114.157 70.8838 112.807 70.5914 111.699 70.4505C110.618 70.2744 109.521 70.245 108.407 70.362C106.943 70.5159 105.81 70.9085 105.008 71.5398C104.234 72.136 103.919 73.1183 104.063 74.4868C104.17 75.5052 104.545 76.3184 105.188 76.9265C105.859 77.4995 106.903 77.9368 108.318 78.2385L112.368 79.116C114.807 79.6641 116.695 80.64 118.033 82.0439C119.4 83.4125 120.213 85.338 120.474 87.8203C120.775 90.6846 120.112 93.1031 118.486 95.0759C116.856 97.0169 114.099 98.1915 110.217 98.5996C108.689 98.7601 107.08 98.7523 105.388 98.5762C103.725 98.3649 101.876 97.9157 99.8407 97.2287L101.09 92.1261C102.953 92.7026 104.521 93.0847 105.796 93.2725C107.099 93.4251 108.355 93.4379 109.564 93.3108ZM121.012 69.7129L120.435 64.2231L144.304 61.7145L144.881 67.2042L135.811 68.1575L138.646 95.129L132.917 95.731L130.082 68.7596L121.012 69.7129ZM166.998 92.149L164.326 86.0107L153.203 87.1797L151.866 93.7395L146.185 94.3365L153.609 60.7364L158.67 60.2045L172.965 91.5218L166.998 92.149ZM155.263 76.9243L154.274 81.758L162.103 80.9352L160.132 76.4125L156.882 68.4526L155.263 76.9243ZM182.862 78.4155L184.116 90.3498L178.388 90.9519L174.976 58.4907L185.812 57.3517C189.09 57.0072 191.693 57.5863 193.621 59.0891C195.577 60.5566 196.702 62.6907 196.996 65.4913L197.212 67.544C197.406 69.3898 197.179 71.0547 196.53 72.5386C195.882 74.0225 194.848 75.209 193.43 76.0982C196.507 80.2794 199.195 84.4211 201.492 88.5235L194.952 89.2109C192.943 85.4 190.631 81.6209 188.017 77.8737L182.862 78.4155ZM186.364 62.6028L181.256 63.1397L182.31 73.1645L187.418 72.6276C188.818 72.4804 189.847 72.0183 190.506 71.2412C191.193 70.429 191.471 69.4023 191.34 68.1611L191.125 66.1084C190.998 64.8991 190.515 63.9845 189.678 63.3646C188.869 62.7096 187.764 62.4556 186.364 62.6028ZM200.776 61.3294L200.199 55.8396L224.068 53.3309L224.645 58.8207L215.574 59.774L218.409 86.7454L212.681 87.3475L209.846 60.3761L200.776 61.3294Z" fill="white"/>
<path d="M113.535 86.0882L112.845 86.8119L112.855 86.8217L112.866 86.8312L113.535 86.0882ZM110.304 84.7385L110.093 85.7158L110.102 85.7177L110.304 84.7385ZM106.255 83.861L106.466 82.8837L106.464 82.8832L106.255 83.861ZM100.059 68.5367L99.2701 67.9219L99.2699 67.9221L100.059 68.5367ZM112.154 65.1418L112.024 66.1333L112.035 66.1347L112.045 66.1358L112.154 65.1418ZM116.998 66.2254L117.969 66.4632L118.191 65.5591L117.305 65.2736L116.998 66.2254ZM115.748 71.328L115.48 72.2911L116.474 72.5687L116.72 71.5658L115.748 71.328ZM111.699 70.4505L111.538 71.4375L111.555 71.4403L111.573 71.4425L111.699 70.4505ZM105.008 71.5398L105.618 72.3321L105.626 72.3257L105.008 71.5398ZM105.188 76.9265L104.501 77.6531L104.519 77.6707L104.539 77.6873L105.188 76.9265ZM108.318 78.2385L108.53 77.2612L108.527 77.2605L108.318 78.2385ZM112.368 79.116L112.587 78.1403L112.58 78.1387L112.368 79.116ZM118.033 82.0439L117.309 82.7338L117.317 82.7422L117.325 82.7504L118.033 82.0439ZM118.486 95.0759L119.252 95.719L119.257 95.7121L118.486 95.0759ZM105.388 98.5762L105.262 99.5682L105.273 99.5697L105.284 99.5708L105.388 98.5762ZM99.8407 97.2287L98.8694 96.9908L98.651 97.8825L99.5208 98.1761L99.8407 97.2287ZM101.09 92.1261L101.386 91.1708L100.371 90.8568L100.119 91.8883L101.09 92.1261ZM105.796 93.2725L105.65 94.2618L105.665 94.264L105.679 94.2657L105.796 93.2725ZM109.669 94.3053C111.609 94.1015 113.207 93.5752 114.286 92.5846C115.416 91.5468 115.835 90.1343 115.665 88.5189L113.676 88.7279C113.794 89.8494 113.505 90.5866 112.933 91.1113C112.31 91.6832 111.212 92.1321 109.46 92.3163L109.669 94.3053ZM115.665 88.5189C115.53 87.2351 115.077 86.1316 114.204 85.3452L112.866 86.8312C113.272 87.1973 113.577 87.7839 113.676 88.7279L115.665 88.5189ZM114.225 85.3644C113.408 84.5851 112.1 84.0891 110.507 83.7593L110.102 85.7177C111.601 86.0282 112.447 86.432 112.845 86.8119L114.225 85.3644ZM110.516 83.7612L106.466 82.8837L106.043 84.8383L110.093 85.7158L110.516 83.7612ZM106.464 82.8832C104.188 82.396 102.515 81.5084 101.357 80.2794C100.204 79.0555 99.4876 77.4142 99.2633 75.2808L97.2743 75.4898C97.5351 77.971 98.3924 80.0496 99.9012 81.6509C101.405 83.2472 103.482 84.2901 106.045 84.8389L106.464 82.8832ZM99.2633 75.2808C99.0059 72.8311 99.552 70.8144 100.848 69.1512L99.2699 67.9221C97.617 70.0439 96.9698 72.593 97.2743 75.4898L99.2633 75.2808ZM100.847 69.1515C102.118 67.521 104.343 66.4373 107.764 66.0778L107.555 64.0888C103.847 64.4785 101.004 65.6971 99.2701 67.9219L100.847 69.1515ZM107.764 66.0778C109.181 65.9288 110.601 65.9472 112.024 66.1333L112.284 64.1502C110.706 63.9439 109.129 63.9233 107.555 64.0888L107.764 66.0778ZM112.045 66.1358C113.463 66.2915 115.011 66.6358 116.691 67.1772L117.305 65.2736C115.521 64.699 113.84 64.3208 112.263 64.1478L112.045 66.1358ZM116.027 65.9876L114.777 71.0901L116.72 71.5658L117.969 66.4632L116.027 65.9876ZM116.017 70.3648C114.399 69.9131 112.999 69.6076 111.825 69.4585L111.573 71.4425C112.616 71.5751 113.915 71.8546 115.48 72.2911L116.017 70.3648ZM111.859 69.4635C110.689 69.2728 109.503 69.2414 108.303 69.3675L108.512 71.3566C109.539 71.2486 110.547 71.2761 111.538 71.4375L111.859 69.4635ZM108.303 69.3675C106.73 69.5328 105.392 69.9653 104.389 70.7539L105.626 72.3257C106.229 71.8517 107.157 71.499 108.512 71.3566L108.303 69.3675ZM104.398 70.7476C103.244 71.6362 102.904 73.0329 103.068 74.5913L105.057 74.3822C104.933 73.2037 105.224 72.6358 105.618 72.332L104.398 70.7476ZM103.068 74.5913C103.196 75.8077 103.657 76.8557 104.501 77.6531L105.875 76.1999C105.432 75.7812 105.143 75.2027 105.057 74.3822L103.068 74.5913ZM104.539 77.6873C105.393 78.4162 106.624 78.8998 108.11 79.2165L108.527 77.2605C107.182 76.9737 106.326 76.5827 105.837 76.1658L104.539 77.6873ZM108.106 79.2158L112.156 80.0933L112.58 78.1387L108.53 77.2612L108.106 79.2158ZM112.149 80.0916C114.45 80.6088 116.142 81.5091 117.309 82.7338L118.757 81.3539C117.248 79.771 115.163 78.7193 112.587 78.1403L112.149 80.0916ZM117.325 82.7504C118.488 83.9151 119.236 85.6031 119.48 87.9249L121.469 87.7158C121.191 85.0729 120.311 82.9099 118.741 81.3373L117.325 82.7504ZM119.48 87.9249C119.757 90.5591 119.148 92.7009 117.714 94.4398L119.257 95.7121C121.077 93.5053 121.794 90.81 121.469 87.7158L119.48 87.9249ZM117.72 94.4328C116.327 96.0913 113.873 97.2098 110.112 97.6051L110.321 99.5941C114.326 99.1732 117.384 97.9426 119.252 95.719L117.72 94.4328ZM110.112 97.6051C108.661 97.7576 107.121 97.7513 105.491 97.5816L105.284 99.5708C107.038 99.7534 108.718 99.7627 110.321 99.5941L110.112 97.6051ZM105.514 97.5842C103.932 97.3832 102.149 96.9526 100.161 96.2812L99.5208 98.1761C101.602 98.8788 103.517 99.3466 105.262 99.5682L105.514 97.5842ZM100.812 97.4665L102.061 92.364L100.119 91.8883L98.8694 96.9908L100.812 97.4665ZM100.794 93.0814C102.684 93.6662 104.306 94.0638 105.65 94.2618L105.942 92.2832C104.736 92.1056 103.221 91.739 101.386 91.1708L100.794 93.0814ZM105.679 94.2657C107.05 94.4263 108.381 94.4407 109.669 94.3053L109.46 92.3163C108.33 92.4351 107.148 92.424 105.912 92.2793L105.679 94.2657ZM121.012 69.7129L120.018 69.8174L120.122 70.812L121.117 70.7074L121.012 69.7129ZM120.435 64.2231L120.331 63.2286L119.336 63.3331L119.441 64.3277L120.435 64.2231ZM144.304 61.7145L145.298 61.6099L145.194 60.6154L144.199 60.7199L144.304 61.7145ZM144.881 67.2042L144.985 68.1987L145.98 68.0942L145.875 67.0997L144.881 67.2042ZM135.811 68.1575L135.706 67.163L134.712 67.2675L134.816 68.262L135.811 68.1575ZM138.646 95.129L138.75 96.1235L139.745 96.0189L139.64 95.0244L138.646 95.129ZM132.917 95.731L131.923 95.8356L132.027 96.8301L133.022 96.7256L132.917 95.731ZM130.082 68.7596L131.077 68.6551L130.972 67.6606L129.978 67.7651L130.082 68.7596ZM122.007 69.6084L121.43 64.1186L119.441 64.3277L120.018 69.8174L122.007 69.6084ZM120.54 65.2177L144.408 62.709L144.199 60.7199L120.331 63.2286L120.54 65.2177ZM143.309 61.819L143.886 67.3087L145.875 67.0997L145.298 61.6099L143.309 61.819ZM144.776 66.2097L135.706 67.163L135.915 69.152L144.985 68.1987L144.776 66.2097ZM134.816 68.262L137.651 95.2335L139.64 95.0244L136.805 68.053L134.816 68.262ZM138.541 94.1344L132.813 94.7365L133.022 96.7256L138.75 96.1235L138.541 94.1344ZM133.912 95.6265L131.077 68.6551L129.088 68.8641L131.923 95.8356L133.912 95.6265ZM129.978 67.7651L120.908 68.7184L121.117 70.7074L130.187 69.7541L129.978 67.7651ZM166.998 92.149L166.081 92.5481L166.374 93.2201L167.103 93.1435L166.998 92.149ZM164.326 86.0107L165.243 85.6115L164.95 84.9395L164.222 85.0161L164.326 86.0107ZM153.203 87.1797L153.099 86.1852L152.37 86.2618L152.224 86.9799L153.203 87.1797ZM151.866 93.7395L151.97 94.734L152.699 94.6574L152.846 93.9393L151.866 93.7395ZM146.185 94.3365L145.209 94.1208L144.909 95.4761L146.29 95.331L146.185 94.3365ZM153.609 60.7364L153.505 59.7419L152.788 59.8172L152.633 60.5206L153.609 60.7364ZM158.67 60.2045L159.579 59.7893L159.281 59.1348L158.565 59.21L158.67 60.2045ZM172.965 91.5218L173.07 92.5163L174.452 92.371L173.875 91.1065L172.965 91.5218ZM155.263 76.9243L156.242 77.1246L156.245 77.112L155.263 76.9243ZM154.274 81.758L153.295 81.5577L153.021 82.8953L154.379 82.7526L154.274 81.758ZM162.103 80.9352L162.208 81.9297L163.566 81.787L163.02 80.5356L162.103 80.9352ZM160.132 76.4125L159.206 76.7905L159.21 76.8013L159.215 76.8121L160.132 76.4125ZM156.882 68.4526L157.808 68.0746L156.533 64.9522L155.9 68.2648L156.882 68.4526ZM167.915 91.7498L165.243 85.6115L163.409 86.4098L166.081 92.5481L167.915 91.7498ZM164.222 85.0161L153.099 86.1852L153.308 88.1742L164.431 87.0052L164.222 85.0161ZM152.224 86.9799L150.886 93.5397L152.846 93.9393L154.183 87.3795L152.224 86.9799ZM151.761 92.7449L146.08 93.342L146.29 95.331L151.97 94.734L151.761 92.7449ZM147.161 94.5523L154.586 60.9521L152.633 60.5206L145.209 94.1208L147.161 94.5523ZM153.714 61.7309L158.774 61.1991L158.565 59.21L153.505 59.7419L153.714 61.7309ZM157.76 60.6198L172.056 91.937L173.875 91.1065L159.579 59.7893L157.76 60.6198ZM172.861 90.5273L166.894 91.1544L167.103 93.1435L173.07 92.5163L172.861 90.5273ZM154.283 76.724L153.295 81.5577L155.254 81.9583L156.242 77.1245L154.283 76.724ZM154.379 82.7526L162.208 81.9297L161.999 79.9407L154.17 80.7635L154.379 82.7526ZM163.02 80.5356L161.049 76.0129L159.215 76.8121L161.187 81.3348L163.02 80.5356ZM161.058 76.0345L157.808 68.0746L155.956 68.8306L159.206 76.7905L161.058 76.0345ZM155.9 68.2648L154.28 76.7365L156.245 77.112L157.864 68.6403L155.9 68.2648ZM182.862 78.4155L182.757 77.421L181.763 77.5255L181.867 78.5201L182.862 78.4155ZM184.116 90.3498L184.221 91.3443L185.215 91.2398L185.111 90.2453L184.116 90.3498ZM178.388 90.9519L177.393 91.0564L177.498 92.0509L178.492 91.9464L178.388 90.9519ZM174.976 58.4907L174.871 57.4962L173.877 57.6007L173.981 58.5952L174.976 58.4907ZM193.621 59.0891L193.006 59.8777L193.013 59.8834L193.02 59.889L193.621 59.0891ZM196.53 72.5386L197.447 72.939L196.53 72.5386ZM193.43 76.0982L192.898 75.2509L191.985 75.8232L192.624 76.691L193.43 76.0982ZM201.492 88.5235L201.597 89.518L203.107 89.3593L202.365 88.0349L201.492 88.5235ZM194.952 89.2109L194.068 89.6773L194.384 90.2761L195.057 90.2054L194.952 89.2109ZM188.017 77.8737L188.838 77.3015L188.5 76.8174L187.913 76.8791L188.017 77.8737ZM181.256 63.1397L181.152 62.1452L180.157 62.2497L180.262 63.2442L181.256 63.1397ZM182.31 73.1645L181.315 73.269L181.42 74.2635L182.414 74.159L182.31 73.1645ZM190.506 71.2412L191.269 71.8876L191.269 71.8869L190.506 71.2412ZM189.678 63.3646L189.049 64.1418L189.065 64.1554L189.083 64.1684L189.678 63.3646ZM181.867 78.5201L183.122 90.4543L185.111 90.2453L183.856 78.311L181.867 78.5201ZM184.012 89.3553L178.283 89.9574L178.492 91.9464L184.221 91.3443L184.012 89.3553ZM179.382 90.8474L175.97 58.3862L173.981 58.5952L177.393 91.0564L179.382 90.8474ZM175.08 59.4852L185.917 58.3463L185.708 56.3572L174.871 57.4962L175.08 59.4852ZM185.917 58.3463C189.029 58.0191 191.345 58.583 193.006 59.8777L194.235 58.3004C192.041 56.5896 189.151 55.9953 185.708 56.3572L185.917 58.3463ZM193.02 59.889C194.72 61.1638 195.732 63.0258 196.002 65.5958L197.991 65.3867C197.672 62.3556 196.434 59.9495 194.221 58.2892L193.02 59.889ZM196.002 65.5958L196.218 67.6485L198.207 67.4394L197.991 65.3867L196.002 65.5958ZM196.218 67.6485C196.396 69.3476 196.184 70.8349 195.614 72.1382L197.447 72.939C198.174 71.2744 198.416 69.432 198.207 67.4394L196.218 67.6485ZM195.614 72.1382C195.049 73.4312 194.153 74.4647 192.898 75.2509L193.961 76.9456C195.544 75.9534 196.715 74.6138 197.447 72.939L195.614 72.1382ZM192.624 76.691C195.68 80.8423 198.345 84.9494 200.62 89.0121L202.365 88.0349C200.045 83.8929 197.335 79.7165 194.235 75.5054L192.624 76.691ZM201.388 87.529L194.848 88.2163L195.057 90.2054L201.597 89.518L201.388 87.529ZM195.837 88.7444C193.807 84.8949 191.474 81.0807 188.838 77.3015L187.197 78.4458C189.789 82.1612 192.079 85.9051 194.068 89.6773L195.837 88.7444ZM187.913 76.8791L182.757 77.421L182.966 79.4101L188.122 78.8682L187.913 76.8791ZM186.26 61.6083L181.152 62.1452L181.361 64.1342L186.469 63.5973L186.26 61.6083ZM180.262 63.2442L181.315 73.269L183.304 73.0599L182.251 63.0351L180.262 63.2442ZM182.414 74.159L187.522 73.6221L187.313 71.6331L182.205 72.1699L182.414 74.159ZM187.522 73.6221C189.08 73.4585 190.389 72.926 191.269 71.8876L189.743 70.5948C189.306 71.1106 188.557 71.5024 187.313 71.6331L187.522 73.6221ZM191.269 71.8869C192.163 70.8304 192.489 69.5179 192.335 68.0566L190.346 68.2656C190.453 69.2867 190.222 70.0275 189.742 70.5955L191.269 71.8869ZM192.335 68.0566L192.119 66.0039L190.13 66.2129L190.346 68.2656L192.335 68.0566ZM192.119 66.0039C191.968 64.5668 191.374 63.3758 190.273 62.5609L189.083 64.1684C189.657 64.5932 190.027 65.2314 190.13 66.2129L192.119 66.0039ZM190.307 62.5875C189.228 61.7134 187.828 61.4434 186.26 61.6083L186.469 63.5973C187.701 63.4678 188.51 63.7057 189.049 64.1418L190.307 62.5875ZM200.776 61.3294L199.781 61.4339L199.886 62.4284L200.881 62.3239L200.776 61.3294ZM200.199 55.8396L200.094 54.8451L199.1 54.9496L199.204 55.9442L200.199 55.8396ZM224.068 53.331L225.062 53.2264L224.957 52.2319L223.963 52.3364L224.068 53.331ZM224.645 58.8207L224.749 59.8152L225.744 59.7107L225.639 58.7162L224.645 58.8207ZM215.574 59.774L215.47 58.7795L214.475 58.884L214.58 59.8785L215.574 59.774ZM218.409 86.7454L218.514 87.74L219.508 87.6354L219.404 86.6409L218.409 86.7454ZM212.681 87.3475L211.686 87.4521L211.791 88.4466L212.785 88.3421L212.681 87.3475ZM209.846 60.3761L210.841 60.2716L210.736 59.277L209.741 59.3816L209.846 60.3761ZM201.771 61.2249L201.194 55.7351L199.204 55.9442L199.781 61.4339L201.771 61.2249ZM200.304 56.8342L224.172 54.3255L223.963 52.3364L200.094 54.8451L200.304 56.8342ZM223.073 53.4355L223.65 58.9252L225.639 58.7162L225.062 53.2264L223.073 53.4355ZM224.54 57.8262L215.47 58.7795L215.679 60.7685L224.749 59.8152L224.54 57.8262ZM214.58 59.8785L217.415 86.85L219.404 86.6409L216.569 59.6695L214.58 59.8785ZM218.305 85.7509L212.576 86.353L212.785 88.3421L218.514 87.74L218.305 85.7509ZM213.675 87.243L210.841 60.2716L208.852 60.4806L211.686 87.4521L213.675 87.243ZM209.741 59.3816L200.671 60.3349L200.881 62.3239L209.951 61.3706L209.741 59.3816Z" fill="white" mask="url(#path-3-outside-1_0_1246)"/>
</svg>
