<svg width="191" height="116" viewBox="0 0 191 116" fill="none" xmlns="http://www.w3.org/2000/svg">
<path d="M105 0.121948L124.105 50.0693L172.493 23.489L153.376 73.4324L208.405 82.6564L160.011 109.227L195.933 149.939L140.906 140.704L140.912 193.855L105 153.135L69.0879 193.855L69.0939 140.704L14.0673 149.939L49.9886 109.227L1.59518 82.6564L56.6238 73.4324L37.5073 23.489L85.8948 50.0693L105 0.121948Z" fill="#47A1DB"/>
<path d="M105 44.9389L115.484 72.349L142.039 57.7623L131.548 85.1703L161.746 90.2322L135.189 104.814L154.902 127.156L124.704 122.088L124.708 151.256L105 128.91L85.292 151.256L85.2953 122.088L55.0978 127.156L74.8107 104.814L48.2533 90.2322L78.452 85.1703L67.9612 57.7623L94.5153 72.349L105 44.9389Z" fill="#F8C328"/>
<path d="M104.36 76.9511L108.67 88.2197L119.587 82.2229L115.274 93.4907L127.689 95.5717L116.771 101.566L124.875 110.751L112.461 108.668L112.462 120.659L104.36 111.472L96.2578 120.659L96.2592 108.668L83.8446 110.751L91.9488 101.566L81.0308 95.5717L93.4458 93.4907L89.1329 82.2229L100.05 88.2197L104.36 76.9511Z" fill="#FE2E44"/>
</svg>
