<svg width="24" height="25" viewBox="0 0 24 25" fill="none" xmlns="http://www.w3.org/2000/svg">
<path d="M11.9576 6.73081C8.60032 6.73081 5.89234 9.43879 5.89234 12.7961C5.89234 16.1533 8.60032 18.8613 11.9576 18.8613C15.3148 18.8613 18.0228 16.1533 18.0228 12.7961C18.0228 9.43879 15.3148 6.73081 11.9576 6.73081ZM11.9576 16.7393C9.78803 16.7393 8.01438 14.9709 8.01438 12.7961C8.01438 10.6212 9.78275 8.85286 11.9576 8.85286C14.1324 8.85286 15.9008 10.6212 15.9008 12.7961C15.9008 14.9709 14.1271 16.7393 11.9576 16.7393ZM19.6856 6.48271C19.6856 7.26924 19.0522 7.89741 18.2709 7.89741C17.4844 7.89741 16.8562 7.26396 16.8562 6.48271C16.8562 5.70146 17.4897 5.06802 18.2709 5.06802C19.0522 5.06802 19.6856 5.70146 19.6856 6.48271ZM23.7027 7.91852C23.613 6.02346 23.1801 4.34483 21.7918 2.96181C20.4088 1.57878 18.7302 1.14593 16.8351 1.05091C14.882 0.94006 9.0279 0.94006 7.07477 1.05091C5.18499 1.14065 3.50636 1.57351 2.11806 2.95653C0.729756 4.33955 0.30218 6.01819 0.207163 7.91324C0.0963102 9.86637 0.0963102 15.7205 0.207163 17.6736C0.296901 19.5686 0.729756 21.2473 2.11806 22.6303C3.50636 24.0133 5.17971 24.4462 7.07477 24.5412C9.0279 24.6521 14.882 24.6521 16.8351 24.5412C18.7302 24.4515 20.4088 24.0186 21.7918 22.6303C23.1749 21.2473 23.6077 19.5686 23.7027 17.6736C23.8136 15.7205 23.8136 9.87165 23.7027 7.91852ZM21.1795 19.7692C20.7678 20.8039 19.9707 21.601 18.9308 22.018C17.3736 22.6356 13.6784 22.4931 11.9576 22.4931C10.2367 22.4931 6.53634 22.6303 4.9844 22.018C3.94977 21.6062 3.15269 20.8091 2.73567 19.7692C2.11806 18.212 2.26058 14.5169 2.26058 12.7961C2.26058 11.0752 2.12334 7.37481 2.73567 5.82287C3.14741 4.78824 3.94449 3.99116 4.9844 3.57414C6.54162 2.95653 10.2367 3.09905 11.9576 3.09905C13.6784 3.09905 17.3788 2.96181 18.9308 3.57414C19.9654 3.98588 20.7625 4.78297 21.1795 5.82287C21.7971 7.38009 21.6546 11.0752 21.6546 12.7961C21.6546 14.5169 21.7971 18.2173 21.1795 19.7692Z" fill="black"/>
</svg>
