<svg width="20" height="20" viewBox="0 0 20 20" fill="none" xmlns="http://www.w3.org/2000/svg">
<path d="M4.38062 5.95336V19.6611H0.719304V5.95336H4.38062ZM0.491264 2.38073C0.491264 1.84863 0.677075 1.40944 1.0487 1.06316C1.42032 0.716875 1.91863 0.543733 2.54363 0.543733C3.16018 0.543733 3.65427 0.716875 4.02589 1.06316C4.40596 1.40944 4.59599 1.84863 4.59599 2.38073C4.59599 2.91282 4.40596 3.35201 4.02589 3.69829C3.65427 4.04458 3.16018 4.21772 2.54363 4.21772C1.91863 4.21772 1.42032 4.04458 1.0487 3.69829C0.677075 3.35201 0.491264 2.91282 0.491264 2.38073ZM11.4874 8.87988V19.6611H7.83873V5.95336H11.2593L11.4874 8.87988ZM10.9553 12.3258H9.96711C9.96711 11.3123 10.098 10.4002 10.3598 9.58934C10.6217 8.77008 10.9891 8.07329 11.462 7.49897C11.935 6.9162 12.4967 6.47279 13.147 6.16873C13.8058 5.85623 14.5406 5.69998 15.3514 5.69998C15.9933 5.69998 16.5803 5.79289 17.1124 5.9787C17.6445 6.16451 18.1006 6.46012 18.4806 6.86552C18.8691 7.27093 19.1647 7.80725 19.3674 8.47448C19.5786 9.14171 19.6842 9.95674 19.6842 10.9196V19.6611H16.0102V10.9069C16.0102 10.2988 15.9257 9.82583 15.7568 9.48799C15.5879 9.15015 15.3387 8.91367 15.0093 8.77853C14.6884 8.63495 14.2914 8.56316 13.8185 8.56316C13.3286 8.56316 12.9021 8.66029 12.5389 8.85454C12.1842 9.0488 11.8886 9.31907 11.6521 9.66536C11.424 10.0032 11.2509 10.4002 11.1326 10.8562C11.0144 11.3123 10.9553 11.8022 10.9553 12.3258Z" fill="black"/>
</svg>
