<svg width="143" height="42" viewBox="0 0 143 42" fill="none" xmlns="http://www.w3.org/2000/svg">
<path d="M6.15852 8.1942C6.07745 8.24579 6.00227 8.30611 5.93434 8.37407L2.14148 12.1669C1.61316 12.6963 1.3145 13.4123 1.31011 14.1602C1.30572 14.9081 1.59595 15.6276 2.11802 16.1631L2.14279 16.1892L2.26009 16.3182L2.71106 16.8057C3.10208 17.2267 3.66384 17.8327 4.35724 18.5704C6.13152 20.4608 7.92551 22.3326 9.73892 24.1854C13.868 28.3993 18.8274 33.2205 21.7822 35.2069C25.1097 37.4539 28.1336 38.7195 30.3415 39.4246C31.4468 39.7765 32.3461 39.9903 32.9809 40.1154C33.2954 40.178 33.6119 40.2306 33.9298 40.2731L33.9754 40.2783C34.8552 40.4178 35.6333 40.4426 36.3254 40.2979C37.0066 40.1637 37.6318 39.8281 38.1201 39.3347L39.0325 38.4223C39.1003 38.3545 39.1589 38.2802 39.2098 38.202C39.621 37.829 39.9494 37.3739 40.1739 36.866C40.3984 36.3582 40.514 35.809 40.5132 35.2538C40.3607 33.5685 38.7705 32.5949 37.3629 31.7346C36.6544 31.3835 36.022 30.8963 35.5016 30.3009L34.4654 27.8818H34.4746C34.8375 27.8818 35.1856 27.7376 35.4423 27.481C35.6989 27.2243 35.8431 26.8762 35.8431 26.5133C35.8431 26.1503 35.6989 25.8022 35.4423 25.5456C35.1856 25.2889 34.8375 25.1447 34.4746 25.1447H33.2924L32.453 23.1844C32.7493 23.0669 32.9952 22.8497 33.1484 22.5702C33.3016 22.2908 33.3525 21.9666 33.2922 21.6536C33.232 21.3407 33.0644 21.0586 32.8184 20.8559C32.5724 20.6533 32.2634 20.5429 31.9447 20.5438H31.3217L30.6283 18.9263C30.9863 18.9107 31.3238 18.7554 31.5685 18.4936C31.8132 18.2319 31.9455 17.8846 31.937 17.5264C31.9285 17.1682 31.7798 16.8276 31.5229 16.5778C31.266 16.3281 30.9214 16.189 30.5631 16.1905H29.4565L28.9208 14.9392C28.84 14.7437 28.7905 14.6029 28.7488 14.483C28.575 13.9136 28.2508 13.4016 27.8104 13.0011L27.1326 12.322C26.8203 12.0213 26.4423 11.7974 26.0286 11.6677V11.0812C25.214 8.62432 22.2423 7.76799 20.2494 9.26297L17.4758 6.43463C17.7252 6.18297 17.9224 5.88451 18.056 5.5564C18.1897 5.22829 18.2571 4.87701 18.2546 4.52274C18.2521 4.16846 18.1795 3.81819 18.0412 3.49203C17.9028 3.16588 17.7014 2.87028 17.4484 2.62223C16.6879 1.86427 15.658 1.43867 14.5843 1.43867C13.5105 1.43867 12.4806 1.86427 11.7201 2.62223L6.15852 8.1942ZM18.4912 20.1593L18.4951 19.1883C18.4951 16.9725 17.6348 14.861 16.0968 13.2839L10.4792 7.55424L13.5617 4.46782C13.7002 4.32883 13.8667 4.22098 14.0501 4.15147C14.2336 4.08196 14.4297 4.05238 14.6255 4.06472C14.8213 4.07705 15.0122 4.13102 15.1854 4.22301C15.3587 4.315 15.5103 4.44289 15.6302 4.59816C15.1307 5.1003 14.8503 5.77978 14.8503 6.48807C14.8503 7.19635 15.1307 7.87583 15.6302 8.37798L21.4042 14.1676C21.9258 14.6703 22.6219 14.9512 23.3463 14.9512C24.0706 14.9512 24.7668 14.6703 25.2883 14.1676L25.9661 14.8454C26.125 14.9695 26.2374 15.1435 26.2854 15.3394L26.2893 15.3524C26.3454 15.514 26.4144 15.7095 26.5239 15.9637L26.6204 16.1905H25.39C24.634 16.1905 24.0214 16.8031 24.0214 17.559C24.0252 17.9208 24.1705 18.2668 24.4264 18.5226C24.6822 18.7785 25.0282 18.9238 25.39 18.9276H27.7934L28.4855 20.5438H27.4624C26.7064 20.5438 26.0938 21.1564 26.0938 21.9123C26.0975 22.2741 26.2429 22.6201 26.4988 22.8759C26.7546 23.1318 27.1005 23.2772 27.4624 23.2809H29.6586L30.4562 25.1447H29.1828C28.4269 25.1447 27.8143 25.7573 27.8143 26.5133C27.8143 26.8913 27.9707 27.2301 28.2183 27.4778C28.466 27.7254 28.8048 27.8688 29.1828 27.8818H31.6293L33.106 31.3306C33.788 32.4766 34.7995 33.3905 36.0087 33.953L36.0126 33.9556C36.6682 34.3558 37.8868 35.0987 37.9194 35.4701C37.9194 35.5431 37.8477 35.766 37.5219 36.131C35.2942 35.8525 33.1077 35.3091 31.0089 34.5122C27.1743 33.0367 23.2107 30.4156 21.7314 25.7782L21.7301 25.7756C21.2022 24.1333 20.0122 22.2212 18.6332 20.3496C18.586 20.286 18.5387 20.2226 18.4912 20.1593ZM3.98186 14.341C3.94958 14.3014 3.93194 14.2519 3.93194 14.2009C3.93194 14.1498 3.94958 14.1003 3.98186 14.0607L6.89493 11.1464C8.65294 12.8696 10.3611 14.6429 12.0172 16.4642C13.5904 18.1977 15.2053 20.0941 16.5335 21.8954C17.8812 23.724 18.8548 25.352 19.2471 26.5706C19.3075 26.7609 19.3718 26.95 19.44 27.1376L3.98447 14.3436L3.98186 14.341Z" fill="black"/>
<path d="M48.858 22.112L45.9182 10.0618L50.2596 8.81408L52.9089 21.941L53.6097 27.4961L54.6011 27.3935C54.6011 27.3935 55.1822 24.3795 56.3445 18.3516C56.9143 15.2864 57.4612 12.1072 57.9854 8.81408L62.3952 9.92509L61.7628 12.6941C61.6716 13.1157 61.5406 13.6797 61.3697 14.3862C59.8314 20.642 58.9198 24.3055 58.6349 25.3766C58.6349 25.3766 58.3842 26.2825 57.8828 28.0943C57.4156 29.8035 57.108 30.7721 56.9598 31C56.9598 31 55.9457 31.0627 53.9174 31.188C52.9488 31.245 51.9689 31.2735 50.9775 31.2735L48.858 22.112ZM74.3257 25.3424H73.1976C72.5595 25.3424 71.551 25.2114 70.1723 24.9493L68.8732 31.2735L64.8052 30.3676L66.8051 21.4795L69.1296 9.85672C71.7049 9.40092 74.4226 9.05337 77.2827 8.81408L79.9833 20.5395L82.0686 30.8291L77.9151 31.4957L76.0862 21.4112L74.3086 12.8992C73.6591 12.8992 72.9811 13.0074 72.2746 13.2239L70.8047 21.6505L75.2145 21.753L74.6846 25.3253C74.5593 25.3367 74.4397 25.3424 74.3257 25.3424ZM85.9827 29.1198C85.9827 25.633 86.034 21.8157 86.1365 17.6679L85.8118 10.0276C86.0283 9.98206 86.3132 9.92509 86.6664 9.85672C86.6664 9.85672 87.0652 9.78265 87.8629 9.63451C88.2959 9.55475 88.7517 9.47499 89.2303 9.39522L90.666 9.15593C91.4979 9.03058 92.3525 8.93942 93.2299 8.88245L97.7423 23.1546L98.7849 28.0601L99.7763 27.9576L99.5541 22.4538L99.7079 9.15593L104.084 8.7799C103.992 12.2098 103.708 16.6652 103.229 22.1461L102.973 30.5385C100.933 30.9145 98.6026 31.1709 95.9818 31.3077L91.4694 16.8646L90.4609 12.3522L89.555 12.4889L89.7259 17.6338L89.8969 30.9658L85.9827 31.3077V29.1198ZM107.895 27.4961C111.234 27.2454 113.792 26.8636 115.57 26.3509C115.649 25.8267 115.689 25.2342 115.689 24.5733C115.689 23.901 115.672 23.2799 115.638 22.7102L109.57 20.5053C109.16 20.3571 108.852 20.0894 108.647 19.7019C108.442 19.3031 108.288 18.7846 108.186 18.1465C107.958 16.7449 107.844 15.6738 107.844 14.9332C107.844 13.7595 107.872 12.9106 107.929 12.3864C108.02 11.452 108.619 10.8196 109.724 10.4891C112.311 9.55475 115.353 8.78559 118.851 8.18166L119.894 12.3009L117.706 12.6086C115.541 12.9276 113.741 13.2695 112.305 13.6341C112.259 13.9304 112.237 14.3178 112.237 14.7964C112.237 15.7764 112.259 16.5455 112.305 17.1039L118.612 19.8729C119.307 20.1691 119.774 20.6876 120.014 21.4283C120.082 21.6448 120.116 21.7986 120.116 21.8898C120.116 21.9809 120.105 22.1803 120.082 22.488C120.071 22.7843 120.048 23.1831 120.014 23.6845C119.922 25.0291 119.809 26.1856 119.672 27.1542C119.535 28.1114 119.199 28.7666 118.663 29.1198C118.139 29.4617 117.495 29.7693 116.732 30.0428C115.98 30.3049 115.165 30.5442 114.288 30.7607C112.863 31.0912 110.977 31.4273 108.63 31.7692L107.895 27.4961ZM124.475 9.32685L128.628 8.7799L128.987 19.3772L135.602 19.1379L135.773 9.39522L139.943 8.81408L139.978 18.1807L139.243 31L135.534 31.3077L135.499 22.9153L133.5 23.0179L128.953 22.9837L128.662 31L124.919 31.3077L124.475 9.32685Z" fill="black"/>
</svg>
