<svg width="28" height="23" viewBox="0 0 28 23" fill="none" xmlns="http://www.w3.org/2000/svg">
<path d="M24.6834 6.29135C24.7006 6.53142 24.7006 6.77155 24.7006 7.01163C24.7006 14.3343 19.1271 22.7717 8.94053 22.7717C5.80223 22.7717 2.8869 21.8627 0.43457 20.2851C0.880463 20.3365 1.30915 20.3536 1.7722 20.3536C4.36167 20.3536 6.74543 19.4791 8.64899 17.9871C6.21381 17.9356 4.17306 16.3408 3.46994 14.1457C3.81295 14.1971 4.15591 14.2314 4.51607 14.2314C5.01338 14.2314 5.51074 14.1628 5.97374 14.0428C3.43568 13.5283 1.53207 11.2989 1.53207 8.60649V8.53791C2.26945 8.9495 3.12698 9.20673 4.03582 9.24099C2.54384 8.24632 1.56638 6.54858 1.56638 4.62786C1.56638 3.59894 1.84071 2.65574 2.32092 1.83257C5.04764 5.19379 9.1463 7.38884 13.7422 7.62897C13.6565 7.21739 13.605 6.78871 13.605 6.35997C13.605 3.30739 16.0745 0.820801 19.1442 0.820801C20.739 0.820801 22.1796 1.48961 23.1914 2.57001C24.4432 2.32993 25.6437 1.86688 26.707 1.23238C26.2953 2.51859 25.4207 3.59899 24.2718 4.28491C25.3865 4.16492 26.4669 3.85617 27.4615 3.42748C26.7071 4.52498 25.7638 5.50244 24.6834 6.29135Z" fill="black"/>
</svg>
