<svg width="1437" height="464" viewBox="0 0 1437 464" fill="none" xmlns="http://www.w3.org/2000/svg">
<path d="M1314.25 78.9897C1293.55 86.7735 1247.9 110.623 1219.16 148.385C1211.36 143.161 1200.83 137.933 1189.76 136.115C1182.71 134.955 1175.15 135.14 1167.93 137.879C1162.65 139.88 1157.78 143.156 1153.54 147.882L1104.12 102.976L1101.5 100.596L1098.08 101.504L1045.12 115.57L995.526 101.532L994.658 101.286H993.755C984.368 101.286 968.756 102.03 952.104 104.248C936.338 106.348 919.179 109.828 905.429 115.487L847.434 101.468L845.237 100.937L843.185 101.884L792.456 125.285C772.423 107.887 723 84.166 654.81 100.925C635.704 92.2388 606.18 81.1155 576.872 74.7565C561.669 71.4579 546.299 69.3907 532.35 69.6989C520.116 69.9693 508.461 72.077 498.948 77.2399C485.966 69.3813 466.553 59.4389 446.425 52.7356C435.424 49.0719 424.011 46.3083 413.194 45.4524C404.171 44.7386 395.24 45.3265 387.232 48.0853C370.772 31.5796 326.923 6.5 253.84 6.5C229.809 6.5 192.391 8.6594 158.062 15.1754C140.906 18.4319 124.29 22.8188 110.427 28.6848C100.977 32.6833 92.3918 37.5402 85.8105 43.5168C76.101 26.3377 50.5924 6.5 0 6.5H-6.5V13V464V470.5H0H1440H1446.5V464V84.8542V81.5459L1443.83 79.599C1423.51 64.8141 1369.85 44.6609 1314.25 78.9897Z" fill="#FE2E44" stroke="black" stroke-width="13"/>
</svg>
